<svg height="220" width="281" xmlns="http://www.w3.org/2000/svg">
  <g fill="none" fill-rule="evenodd">
    <path d="M245.662 106.354c0 58.733-47.173 106.354-105.355 106.354C82.173 212.708 35 165.088 35 106.354S82.173 0 140.355 0s105.307 47.62 105.307 106.354"/>
    <path d="M245.662 106.354c0 58.733-47.173 106.354-105.355 106.354C82.173 212.708 35 165.088 35 106.354S82.173 0 140.355 0s105.307 47.62 105.307 106.354z"/>
    <path d="M44.222 106.354c0 32.559 16.224 62.632 43.359 80.57.531.34 1.352.633 19.555 5.848 11.105 3.169 27.425 7.848 31.433 9.261.338.341.82.634 1.641.683h.242c.145 0 3.428-.05 3.428-.05 24.914-.877 48.235-11.307 65.617-29.293 17.43-18.083 27.04-41.869 27.04-66.97 0-53.129-43.118-96.362-96.085-96.362-53.112-.049-96.23 43.185-96.23 96.313zm4.2 0c0-50.789 41.235-92.122 91.933-92.122 50.698 0 91.932 41.333 91.932 92.122 0 24.03-9.173 46.792-25.831 64.046-16.61 17.206-38.917 27.198-62.77 28.026 0 0-1.93.05-2.655.05-.724-.342-1.642-.683-2.897-1.073l-7.87-2.389-21.97-6.336c-8.545-2.437-17.285-4.923-18.54-5.41-25.88-17.109-41.331-45.866-41.331-76.914zm91.74 92.17c-.145.049-.29.049-.386.097.096-.097.241-.097.386-.097z" fill="#fff" fill-rule="nonzero"/>
    <path d="M44.222 106.354c0 32.559 16.224 62.632 43.359 80.57.531.34 1.352.633 19.555 5.848 11.105 3.169 27.425 7.848 31.433 9.261.338.341.82.634 1.641.683h.242c.145 0 3.428-.05 3.428-.05 24.914-.877 48.235-11.307 65.617-29.293 17.43-18.083 27.04-41.869 27.04-66.97 0-53.129-43.118-96.362-96.085-96.362-53.112-.049-96.23 43.185-96.23 96.313zm4.2 0c0-50.789 41.235-92.122 91.933-92.122 50.698 0 91.932 41.333 91.932 92.122 0 24.03-9.173 46.792-25.831 64.046-16.61 17.206-38.917 27.198-62.77 28.026 0 0-1.93.05-2.655.05-.724-.342-1.642-.683-2.897-1.073l-7.87-2.389-21.97-6.336c-8.545-2.437-17.285-4.923-18.54-5.41-25.88-17.109-41.331-45.866-41.331-76.914zm91.74 92.17c-.145.049-.29.049-.386.097.096-.097.241-.097.386-.097z"/>
    <path d="M245.662 106.354c0 58.733-47.173 106.354-105.355 106.354C82.173 212.708 35 165.088 35 106.354S82.173 0 140.355 0s105.307 47.62 105.307 106.354" fill="#084b7e"/>
    <path d="M44.222 106.354c0 32.559 16.224 62.632 43.359 80.57.531.34 1.352.633 19.555 5.848 11.105 3.169 27.425 7.848 31.433 9.261.338.341.82.634 1.641.683h.242c.145 0 3.428-.05 3.428-.05 24.914-.877 48.235-11.307 65.617-29.293 17.43-18.083 27.04-41.869 27.04-66.97 0-53.129-43.118-96.362-96.085-96.362-53.112-.049-96.23 43.185-96.23 96.313zm4.2 0c0-50.789 41.235-92.122 91.933-92.122 50.698 0 91.932 41.333 91.932 92.122 0 24.03-9.173 46.792-25.831 64.046-16.61 17.206-38.917 27.198-62.77 28.026 0 0-1.93.05-2.655.05-.724-.342-1.642-.683-2.897-1.073l-7.87-2.389-21.97-6.336c-8.545-2.437-17.285-4.923-18.54-5.41-25.88-17.109-41.331-45.866-41.331-76.914zm91.74 92.17c-.145.049-.29.049-.386.097.096-.097.241-.097.386-.097z" fill="#fff" fill-rule="nonzero"/>
    <path d="m138.472 52.495-21.969 13.11v3.51a355.23 355.23 0 0 0-2.462-1.9l-19.073 11.94v2.925c-.386-.147-2.8-1.024-2.8-1.024l-16.706 9.748s.676 3.802.917 5.02a510.29 510.29 0 0 0-4.056 1.804l2.946 13.989s3.09 1.12 4.249 1.56c.627 3.509 4.2 23.25 4.2 23.25a28.65 28.65 0 0 0 .821 3.216c-1.255.341-6.373 1.706-6.373 1.706l3.331 10.138 58.858 18.23 58.81-18.23 3.331-10.138s-4.973-1.316-6.132-1.657c.628-3.315 4.201-23.201 4.829-26.564 1.158-.439 4.249-1.56 4.249-1.56l2.945-13.989s-3.476-1.51-4.056-1.803c.242-1.219.918-5.02.918-5.02l-16.707-9.7s-2.414.877-2.8 1.024v-2.925L166.67 67.214s-2.414 1.853-2.463 1.901v-3.51l-23.804-14.232z" stroke="#fff" stroke-width="1.92"/>
    <path d="m92.554 85.103-12.988 7.554s.676 3.754.966 5.313a607.15 607.15 0 0 1-3.96 1.755l1.932 9.066s3.042 1.12 4.297 1.608c.338 1.755 2.752 15.11 4.587 25.297 1.207 6.58 5.6 13.014 5.6 13.014l47.415 15.939 50.843-17.109 6.76-37.19 4.297-1.608 1.932-9.066s-2.994-1.316-3.96-1.754c.29-1.609.966-5.313.966-5.313l-12.988-7.555-6.132 2.242v-6.142L166.815 71.7l-6.326 4.825v-8.822l-20.134-12.04-1.207.732-18.927 11.308v8.822l-6.325-4.825-15.21 9.504v6.142z"/>
    <path d="m201.193 101.43-3.911-1.705 1.014-5.557-10.285-5.946v7.896l-8.498-3.85V82.86l-12.457-7.798v11.844l-9.077-3.948V69.359l-16.417-9.797v101.82l47.463-16.084 6.712-37.043-5.746-2.437-1.449-2.34 11.588 3.12z" fill="#fff"/>
    <path d="m139.148 59.562-16.416 9.797v13.599l-9.078 3.948V75.062l-12.457 7.798v9.408l-6.905 3.07-1.641-2.34v-4.776l-10.236 5.946.965 5.557-3.862 1.706 1.062 5.166 12.554-3.265v1.998l-8.209 2.925 6.76 37.043 47.463 16.085z" fill="#f8971d"/>
    <path d="M140.741 93.973s.039 0 0 0c.039 0 .039 0 0 0m53.692 42.552v-5.216c0-.34-.097-1.56-1.545-2.047-2.318-.828-4.78-2.34-7.05-4.338l.097.098c-.531-.536-1.545-.926-2.656-.244l-2.559 1.657c-1.738 1.17-3.38 2.242-5.31 3.071-.05 0-.05 0-.097.049-.966.438-1.352 1.413-1.352 2.242v8.042a1.721 1.721 0 0 0-.531-.097v-19.058c0-.195.048-.244.048-.341l.096-.293c.049-.195.097-.39.097-.585 0-.487-.145-.926-.483-1.267-.434-.487-1.11-.78-1.786-.682-.097 0-.194.048-.29.048-.82.244-1.835.536-2.8.78.675-.682 1.351-1.365 2.124-2.047 0 0 .096-.049.048-.049l.676-.536h.048c.049 0 .145.049.194.049 2.51.487 4.683 1.852 6.856 3.363.048 0 .048.049.048.049 1.69 1.218 2.994.097 3.332-.244 1.883-1.852 3.766-2.924 6.518-3.704 1.11-.293 1.787-1.219 1.787-2.437v-2.145c0-.682-.338-1.267-.87-1.657-.048-.049-.096-.049-.144-.098.82-.39 1.4-1.17 1.4-2.047v-5.215c0-.341-.097-1.56-1.545-2.047-2.318-.829-4.78-2.34-7.05-4.338l.097.097c-.531-.536-1.545-.926-2.656-.243l-2.559 1.657c-1.69 1.12-3.331 2.193-5.214 2.973.241-.341.386-.731.386-1.219V96.8l-.628-1.51s-1.448-.537-1.497-.537h-1.11c0-.487.096-1.023.338-1.852V93c.338-1.073-.193-1.804-.435-2.048-.483-.536-1.207-.682-1.931-.487-.87.244-3.67.877-5.987 1.316a1.93 1.93 0 0 0 .29-1.023v-.05a1.83 1.83 0 0 0-1.063-1.656c-.29-.147-1.786-.829-3.235-1.658-1.303-.78-2.317-1.51-2.607-1.706a1.944 1.944 0 0 0-2.27 0l-.675.537-1.883 1.413a29.722 29.722 0 0 1-2.994 1.804c-.628.34-1.062 1.072-1.014 1.803.048.731.531 1.413 1.207 1.657.966.341 2.414.926 3.332 1.511l1.014.634a1.57 1.57 0 0 0-.628.487c0 .049-.048.049-.048.098-.773 1.023-1.594 2.096-2.463 3.412-2.22-1.365-3.766-2.876-4.587-3.705-.724-.73-1.207-1.218-2.076-1.218-.483 0-.917.048-1.642.73v-5.653c0-.488-.193-.975-.58-1.316-.482-.439-1.158-.585-1.786-.439-1.448.439-6.47 1.755-7.966 1.95-.483.097-.918.341-1.207.78h-.049l-.048.097c-.097.195-.193.39-.241.585l-.194.439-.676-.634c-1.786-.634-3.331-1.365-4.635-2.145l-.096-.048c-.773-.439-1.739-.342-2.366.292-.773.829-1.594 1.901-2.221 2.827-.193-.195-1.014-.926-1.014-.926-1.787-.634-3.332-1.365-4.636-2.145l-.096-.048c-.773-.439-1.738-.342-2.366.292-.676.731-1.497 1.706-2.221 2.583v-.39c0-.39-.048-1.023-.58-1.56l-1.448-.584c-.531 0-1.255-.098-2.028-.244-2.028-.341-4.539-.731-6.76.439-1.69.877-2.8 2.193-3.138 3.704-.241 1.121-.048 2.242.58 3.07 1.062 1.414 2.365 1.756 3.186 1.61.048 0 .097-.05.145-.05v13.648c-4.587 2.291-5.118 5.947-5.118 7.311v.342c.048.682.531 1.364 1.159 1.608.241.098.53.146.82.146-2.462 1.365-6.18 5.07-7.097 8.433a13.67 13.67 0 0 0-.87 4.776 14.39 14.39 0 0 0 3.767 9.7c4.635 4.971 11.202 6.921 17.623 5.264a13.765 13.765 0 0 0 5.263-2.632c2.076 2.193 5.118 3.363 6.519 3.51 1.738.145 5.214-1.17 6.663-1.756.53.244 1.303.634 1.303.634l1.594.829c-.049 0-.097-.049-.145-.049.531.292 1.159.39 1.786.244.58-.147 1.111-.585 1.4-1.121-.048.048-.048.048-.096.146l.628-.877c.58.146 1.062 0 1.255-.098l.193-.049h.097c.434-.097 1.786-.39 3.38 0 1.786.488 2.897 1.511 2.897 1.511.241.195 1.4 1.219 2.945 0 2.607-1.754 4.008-2.144 5.311-2.534.628-.195 1.449-.293 1.98-.341.483-.05.917-.098 1.304-.293.096.098.241.195.338.293l.724.34c1.014.488 3.67 1.707 4.925 2.682.869.633 1.931.633 2.752-.05l.145-.145a51.013 51.013 0 0 1 2.849-2.779c.24.195.482.39.82.536l.242.098c.772.292 1.883.78 3.718 2.242.048 0 .048.049.096.049 1.545 1.072 2.704.146 2.994-.146 0 0 2.317-2.291 3.621-3.607.193.146.386.243.58.292.048 0 .144.049.193.049 2.51.487 4.683 1.852 6.856 3.363.048 0 .048.049.048.049 1.69 1.218 2.994.097 3.332-.244 1.883-1.852 3.766-2.924 6.518-3.704 1.11-.293 1.787-1.219 1.787-2.437v-2.145c0-.682-.338-1.267-.87-1.657-.048-.049-.096-.049-.144-.098 1.014-.487 1.593-1.267 1.593-2.144" fill="#fff" fill-rule="nonzero"/>
    <path d="M86.615 128.88c0-.039 0-.039.039-.077 0-.039 0-.039.038-.077-.038.077-.077.115-.077.154" fill="#fff" fill-rule="nonzero"/>
    <path d="m126.015 113.373-.483-1.17V93.827l.386-1.413s0-.049-.048-.098c-3.09-1.072-4.732-2.144-5.07-2.388h-.096c-1.304 1.413-2.897 3.753-3.139 4.192-.048.048-.048.097 0 .097.193.146.58.39.821.488.82.292.82.584.82.584v16.329c0 .39 0 .78-.192.877-.338.195-.628-.097-1.207-.536-1.497-1.267-2.56-2.145-2.56-2.145V93.73l.339-1.414s.048-.048-.049-.097c-3.09-1.073-4.732-2.145-5.07-2.389h-.096c-1.304 1.414-3.187 3.754-3.428 4.192-.048.049-.048.098 0 .098.193.146.82.39 1.11.487.821.293.821.585.821.585v15.841c-.676.536-2.752 1.706-3.187 1.706-.386 0-.676-.39-.676-.39V91.195c0-.633.049-.73-.193-.73-2.172 0-5.456-1.317-7.918 0-2.318 1.218-2.608 3.119-1.932 4.045.725 1.023 1.4.877 1.4.877-.386-2.535 1.932-1.95 2.27-1.316.097.195.097.78.097.78v17.254c-5.167 1.95-5.119 5.703-5.07 6.385 0 .098.048.05.096.05 4.056-3.559 7.726-1.122 8.257-.732.048.049.096.049.145 0 .724-.39 6.325-3.266 6.808-3.558.676-.39 1.207 0 1.207 0s4.104 3.363 4.49 3.558c.145.097.242 0 .29 0 4.683-3.363 10.236-4.143 11.057-4.24.048-.098 0-.195 0-.195M140.5 116.2v-13.307c-.531-.682-1.449-1.218-2.173-1.803-1.352-.049-2.51 1.462-2.51 1.462v10.82c.048.537.482 1.073.82 1.56.097.098.049.146 0 .195-1.255.829-2.462 1.657-3.573 2.632-.193.195-.338.049-.434 0-1.207-1.023-2.56-1.803-3.863-2.632-.145-.097-.048-.195 0-.243.386-.342.676-.683.676-1.122V92.414l-.386-1.316c1.641-.244 5.649-1.316 7.097-1.706-.144.585-.29 1.12-.338 1.706v7.457c.097.146.338.146.483.049 0 0 4.153-2.778 4.442-2.778.29 0 2.221 2.583 5.94 4.776.386.195-.146.341-.146 1.511v13.16c0 2.145-1.641 5.606-5.118 7.117-1.786.682-3.235.78-3.524.78-.387.048-.193-.147-.145-.195 0 .048 2.559-1.95 2.752-6.775m29.453-19.4c0-.097-.048-.195-.193-.195h-2.463c-.193 0-.338-.097-.386-.243-.241-1.462-.193-2.242.242-3.948.048-.146.048-.244-.097-.195-1.304.39-6.035 1.365-6.615 1.462-.048 0-.048.049-.048.097.241.78.241 1.658.241 2.584 0 .292-.29.292-.29.292h-1.255s-.434 0-.434.488v1.267s0 .39.434.39h1.256s.386 0 .386.341v13.258s.048.73-.145 1.17c-.145.39-.386.828-.483 1.023-.048.098-.048.098 0 .146.242.147 4.008 1.755 5.794 3.168.145.098.29.147.483 0 .966-1.023 1.883-1.95 2.994-2.875.483-.439 1.11-.878 1.448-1.17.338-.292-.53-1.121-1.11-1.267l-1.11.78c-.677.195-1.305-.342-1.643-.78V98.945c0-.097.049-.195.242-.195h2.559c.193 0 .338-.097.338-.244-.145-.048-.145-1.706-.145-1.706m-7.194 29.635c0-.097-.048-.195-.193-.195h-2.463c-.193-.048-.338-.097-.386-.243-.241-1.463-.193-2.243.241-3.948.049-.147.049-.244-.096-.195-1.304.39-6.036 1.364-6.615 1.462-.048 0-.048.049-.048.097.241.78.241 1.657.241 2.584 0 .292-.29.292-.29.292h-1.255s-.435 0-.435.487v1.268s0 .39.435.39h1.255s.387 0 .387.34v13.21s.048.73-.145 1.17c-.145.39-.387.828-.483 1.023-.048.098-.048.098 0 .146.241.147 4.007 1.755 5.794 3.169.145.097.29.146.483 0 .965-1.024 1.883-1.95 2.945-2.876.483-.439 1.11-.878 1.449-1.17.338-.292-.531-1.121-1.11-1.267l-1.111.78c-.676.195-1.304-.342-1.642-.78v-13.502c0-.097.048-.195.241-.195h2.56c.193 0 .337-.097.337-.243-.096-.098-.096-1.804-.096-1.804" fill="#005aa4" fill-rule="nonzero"/>
    <path d="M158.993 90.757c.048-.05.048-.05 0-.098a45.367 45.367 0 0 1-3.428-1.755c-1.4-.828-2.511-1.608-2.753-1.803-.048-.049-.096 0-.096 0-.338.244-1.594 1.218-2.608 1.95-1.351.974-2.848 1.754-3.186 1.95-.049.048-.049.048 0 .048.386.146 2.366.829 3.67 1.706 1.738 1.121 2.558 1.51 2.751 1.706.049.049.097.049.145 0 .242-.195 1.16-.829 2.56-1.901 1.11-.829 2.607-1.609 2.945-1.803" fill="#f8971d"/>
    <g fill-rule="nonzero">
      <path d="M156.82 99.286s0-.34-.338-.487a27.853 27.853 0 0 1-4.732-2.194c-.193-.146-.338-.097-.434 0-.966 1.219-1.884 2.535-2.753 3.802-.144.195-.144.439.097.536.338.147 1.4.683 1.642.878.241.195.193.438.193 1.12v10.334s.048 1.17-.87 1.852c-.048.049-.096.098 0 .146 1.256.83 2.656 1.755 3.67 2.486.145.098.242.098.386 0 1.449-1.12 2.366-1.706 3.718-2.437.049-.049.049-.097 0-.146-.29-.341-.53-.682-.627-1.121V99.286m8.256 23.884c-.048-.44.048-1.121-.628-2.048-.048-.097-.048-.146.049-.195.241-.097 1.11-.195 2.124-.34 1.304-.244 3.477-.732 5.118-1.268 0 0 .193-.049.145.146-.048.098-.241.488-.241 1.17v21.105c0 .292.096.439.338.487.483.098 1.062-.926 1.448-.682s.483.341.918.682c.386.293.096.634.096.634l-4.538 4.533c-.242.244-.483.098-.676-.049-2.222-1.706-3.573-2.193-4.346-2.534s-.048-.488.193-1.365c.048-.244.097-.78.097-.78zm-22.258 3.265c.24.195 2.703 2.291 7.387 1.609.096 0 .386-.098.29.097-.58 1.657-2.27 3.022-4.105 3.558-2.172.683-4.683.098-6.373-1.023-.193 0-.386.097-.386.34 0 .196-.145 2.73-.049 4.046 0 0 0 .147.242.147.241 0 10.043.195 10.043.195.483.048.772.438.869.828 0 0-.145 5.654-.145 6.483s.338 1.072.241 1.218c-.048.147-1.738.195-3.09.585-1.352.39-2.945.878-5.745 2.73-.242.146-.483.487-.773.195-.241-.244-1.593-1.365-3.67-1.95-2.076-.536-3.814-.146-4.297 0-.483.098-.676.293-.676.098 0-1.365 1.738-3.12 3.96-3.9 2.172-.78 5.166-.34 7 1.024.29.049.435-.049.628-.195 0 0 .338-.244.338-.488v-3.411c-.048-.098-.096-.244-.29-.293l-9.608-.195c-.676-.097-.917-.487-.917-1.12v-6.63c0-.683-.435-1.072-.29-1.267.145-.195 2.076-.244 4.346-.926 2.269-.634 4.2-1.804 4.442-1.998.193-.098.386.048.627.243m29.212-24.955c3.042-1.268 5.36-3.12 8.16-4.826.145-.097.29-.146.386-.049 2.173 1.95 4.78 3.705 7.63 4.728.24.098.337.195.337.342v5.215c0 .195-.241.39-.483.439-3.331.73-6.856 1.316-10.188 2.144-.048 0-.338.146-.338.488s.049.633.097.974c1.352.732 2.752 1.414 4.056 2.194h.338c1.69-1.267 3.621-2.096 5.649-2.632 0 0 .434-.146.434.146v2.145c0 .585-.29.585-.434.633-3.187.878-5.311 2.194-7.34 4.192-.434.487-.82.146-1.061-.049-2.366-1.608-4.684-3.07-7.533-3.607-.145-.048-.096-.195-.096-.292v-11.552c.048 0 .048-.487.386-.633zm5.697.682v4.046c.049.146.145.195.29.243l2.27-.39c.676-.195 2.027-.243 2.027-.487v-1.755c0-.633.242.195-3.331-2.437-.483-.049-1.256.488-1.256.78zm-1.641 29.001c3.042-1.267 5.36-3.12 8.16-4.825.145-.098.29-.146.386-.049 2.173 1.95 4.78 3.704 7.629 4.728.241.097.338.195.338.292v5.216c0 .195-.242.39-.483.438-3.332.732-6.905 1.316-10.188 2.145-.048 0-.338.146-.338.487s0 .634.097.975c1.352.731 2.752 1.414 4.056 2.194h.338c1.69-1.268 3.62-2.048 5.649-2.584 0 0 .434-.146.434.147v2.144c0 .585-.29.634-.434.634-3.187.877-5.311 2.193-7.34 4.192-.434.487-.82.146-1.062-.05-2.317-1.608-4.683-3.07-7.532-3.606-.145-.049-.096-.195-.096-.292v-11.552c.096.049.048-.439.386-.634zm5.697.683v4.045c.049.146.145.195.29.244l2.27-.39c.675-.195 2.027-.244 2.027-.488v-1.754c0-.634.242.195-3.331-2.437-.435-.05-1.256.487-1.256.78zm-65.376-8.726c-2.317 2.145-3.67 4.631-4.973 7.166-.435.146-.773-.293-1.062-.585-1.594-1.901-2.028-4.29-1.594-6.726 0 0-.338-.342-1.448-.488-.918-.146-1.159-.097-1.449-.146 0 0-2.028-.098-4.249.585-1.931.633-3.042 1.608-3.042 1.608-3.283 3.12-4.104 7.848-2.462 11.893 0 0 .676 1.365 1.207 2.047s1.449 1.609 1.449 1.609c.965.877 6.614 5.264 14.002 2.778v.098s-.242.292-.386.39c-1.449 1.657-3.573 2.924-5.746 3.46-6.036 1.56-11.975-.536-15.837-4.728-3.139-3.412-4.104-8.48-2.511-12.721.773-2.925 4.49-6.532 6.518-7.506 1.739-.83 3.477-1.804 9.32-2.145 4.683-.244 12.746 2.242 12.263 3.412" fill="#005aa4"/>
      <path d="M121.718 126.435c1.448.536 4.876 1.56 8.642 2.34.29.049.29.292.29.292v12.868c0 .195 1.835 1.267 1.98 1.316.193.098.048.341.048.341-.82 1.316-1.835 2.437-2.704 3.753-.145.195-.434.293-.676.195-1.159-.585-2.27-1.218-3.38-1.754h-.386c-2.028.877-5.215 1.998-6.373 1.852-1.16-.098-4.732-1.462-6.277-4.143-.58-1.024-.483-2.145-.483-2.145 0-2.778 1.98-5.02 4.732-6.044 0 0 1.11-.438 2.704-.78 1.545-.34 2.51-.34 3.186-.292.966.097 1.497.049 1.497-.244 0-.292.097-1.56.097-1.755 0-.243 0-.194-.242-.243-.241-.049-2.27-.634-2.897-.829-.627-.146-1.11-.341-1.497-.097-.338.195-1.593 1.072-2.124 1.462-.58.341-1.642.78-2.704.926-1.062.097-2.414-.195-2.704-.39 0 0-.29-.195 0-.341.242-.341 2.656-.975 9.27-6.288zm1.834 9.943c-1.641-.048-3.186.488-4.007 1.853-.773 1.12-.724 2.73-.097 3.899.435.682 1.16 1.17 1.98 1.365.869.146 1.931.146 2.607-.39l.193-6.385c0-.342-.434-.293-.676-.342z" fill="#005aa4"/>
      <path d="m73.53 127.41-6.518-1.9-3.814 5.702-.242-6.873-6.566-1.9 6.421-2.34-.241-6.873 4.2 5.41 6.374-2.339L69.33 122z" fill="#fff"/>
      <path d="m73.53 127.41-6.518-1.9-3.814 5.702-.242-6.873-6.566-1.9 6.421-2.34-.241-6.873 4.2 5.41 6.374-2.339L69.33 122z" fill="#f8971d"/>
      <path d="m207.083 127.41 6.519-1.9 3.814 5.702.241-6.873 6.519-1.9-6.374-2.34.242-6.873-4.201 5.41-6.373-2.339 3.766 5.703z" fill="#fff"/>
      <path d="m207.083 127.41 6.519-1.9 3.814 5.702.241-6.873 6.519-1.9-6.374-2.34.242-6.873-4.201 5.41-6.373-2.339 3.766 5.703z" fill="#f8971d"/>
      <path d="m73.289 79.351-.048-.049c-5.022-3.314-6.229-9.7-2.946-14.768 2.415-3.753 5.843-5.07 9.32-4.826l-.29 6.483c-1.594-.146-3.042.195-4.008 1.755-1.255 1.9-.386 4.24 1.642 5.605l.048.049c2.173 1.413 4.587 1.12 5.746-.732 1.014-1.608.724-3.07-.049-4.581l5.65-2.973c1.593 3.07 2.076 6.775-.628 11.015-3.09 4.63-9.222 6.434-14.437 3.022zm7.871-28.27 7.676-6.19c2.753-2.242 5.118-2.973 7.05-2.73 1.69.195 3.09.975 4.394 2.584l.048.048c1.835 2.291 1.883 4.875.724 7.312l7.919 2.437-5.987 4.825-6.519-2.145-1.11.927 3.573 4.532-5.215 4.241zm13.47 1.462c1.256-1.023 1.546-2.193.821-3.168l-.048-.049c-.82-1.023-1.98-.877-3.187.098l-2.27 1.852 2.463 3.12zm17.817-21.056 6.325-1.998 14.05 16.913-6.952 2.193-1.835-2.29-6.711 2.095-.193 2.925-6.857 2.144zm8.643 10.772-3.187-4.143-.29 5.264zm8.112-15.5 7.484-.049 3.959 11.357 3.814-11.405 7.388-.05-7.967 20.423-6.422.05zm28.052 1.024 16.369 4.922-1.545 5.313-10.092-3.022-.58 1.95 9.368 2.827-1.4 4.68-9.367-2.828-.628 2.096 10.236 3.07-1.545 5.314-16.513-4.972zm25.253 9.212 8.015 5.702c2.897 2.048 4.249 4.095 4.587 6.093.29 1.706-.048 3.266-1.255 4.972l-.049.049c-1.69 2.388-4.104 3.216-6.76 2.778l-.096 8.335-6.277-4.436.193-6.921-1.159-.829-3.283 4.728-5.504-3.9zm2.366 13.452c1.303.926 2.51.926 3.235-.097l.048-.049c.724-1.072.29-2.144-.966-3.07l-2.366-1.707-2.269 3.217zm5.021 13.209 5.553.39a11.586 11.586 0 0 0 2.27 7.116c.724.975 1.255 1.219 1.69.878l.047-.049c.483-.341.338-1.023-.579-3.07-1.931-4.192-3.235-8.19.193-10.724l.048-.048c3.09-2.291 7.195-1.609 10.478 2.875 2.27 3.168 3.235 6.044 3.138 9.017l-5.6.05c0-2.34-.87-4.583-1.98-6.094-.58-.828-1.159-.974-1.545-.682l-.048.049c-.435.341-.387.975.53 2.924 2.27 4.728 3.09 8.433-.144 10.82l-.048.05c-3.38 2.534-7.533 1.218-10.72-3.169-2.365-3.265-3.572-6.92-3.283-10.333z" fill="#fff"/>
      <path d="m73.289 79.351-.048-.049c-5.022-3.314-6.229-9.7-2.946-14.768 2.415-3.753 5.843-5.07 9.32-4.826l-.29 6.483c-1.594-.146-3.042.195-4.008 1.755-1.255 1.9-.386 4.24 1.642 5.605l.048.049c2.173 1.413 4.587 1.12 5.746-.732 1.014-1.608.724-3.07-.049-4.581l5.65-2.973c1.593 3.07 2.076 6.775-.628 11.015-3.09 4.63-9.222 6.434-14.437 3.022zm7.871-28.27 7.676-6.19c2.753-2.242 5.118-2.973 7.05-2.73 1.69.195 3.09.975 4.394 2.584l.048.048c1.835 2.291 1.883 4.875.724 7.312l7.919 2.437-5.987 4.825-6.519-2.145-1.11.927 3.573 4.532-5.215 4.241zm13.47 1.462c1.256-1.023 1.546-2.193.821-3.168l-.048-.049c-.82-1.023-1.98-.877-3.187.098l-2.27 1.852 2.463 3.12zm17.817-21.056 6.325-1.998 14.05 16.913-6.952 2.193-1.835-2.29-6.711 2.095-.193 2.925-6.857 2.144zm8.643 10.772-3.187-4.143-.29 5.264zm8.112-15.5 7.484-.049 3.959 11.357 3.814-11.405 7.388-.05-7.967 20.423-6.422.05zm28.052 1.024 16.369 4.922-1.545 5.313-10.092-3.022-.58 1.95 9.368 2.827-1.4 4.68-9.367-2.828-.628 2.096 10.236 3.07-1.545 5.314-16.513-4.972zm25.253 9.212 8.015 5.702c2.897 2.048 4.249 4.095 4.587 6.093.29 1.706-.048 3.266-1.255 4.972l-.049.049c-1.69 2.388-4.104 3.216-6.76 2.778l-.096 8.335-6.277-4.436.193-6.921-1.159-.829-3.283 4.728-5.504-3.9zm2.366 13.452c1.303.926 2.51.926 3.235-.097l.048-.049c.724-1.072.29-2.144-.966-3.07l-2.366-1.707-2.269 3.217zm5.021 13.209 5.553.39a11.586 11.586 0 0 0 2.27 7.116c.724.975 1.255 1.219 1.69.878l.047-.049c.483-.341.338-1.023-.579-3.07-1.931-4.192-3.235-8.19.193-10.724l.048-.048c3.09-2.291 7.195-1.609 10.478 2.875 2.27 3.168 3.235 6.044 3.138 9.017l-5.6.05c0-2.34-.87-4.583-1.98-6.094-.58-.828-1.159-.974-1.545-.682l-.048.049c-.435.341-.387.975.53 2.924 2.27 4.728 3.09 8.433-.144 10.82l-.048.05c-3.38 2.534-7.533 1.218-10.72-3.169-2.365-3.265-3.572-6.92-3.283-10.333z" fill="#fff"/>
    </g>
    <g fill-rule="nonzero">
      <path d="m.097 150.196 48.316 5.14v44.007l-48.316-5.19 14.896-21.978zm280.468 0-48.317 5.14v44.007l48.317-5.19-14.897-21.978z" fill="#e48525"/>
      <path d="M33.904 157.196c72.305 26.825 142.338 26.335 211.838 0v44.545c-70.758 25.602-141.467 22.665-211.838 0z" fill="#f8971d"/>
      <path d="m52.137 175.65 5.224 1.567-1.645 5.58 4.74 1.42 1.645-5.58 5.223 1.566-4.643 15.762-5.224-1.566 1.645-5.63-4.74-1.42-1.644 5.63-5.224-1.566zm23.07 6.413 5.224 1.224 2.95 17.72-5.755-1.37-.339-2.35-5.562-1.322-1.306 1.958-5.658-1.322zm1.693 11.112-.532-4.21-2.321 3.573zm11.414-8.028 5.369.93-1.983 11.601L99.245 199l-.774 4.65-12.865-2.251zm14.655 2.496 5.417.637-1.355 11.65 7.594.93-.532 4.65-12.962-1.566zm18.862 10.378c.194-4.797 4.208-8.469 9.19-8.273 5.03.196 8.705 4.112 8.512 8.86v.05c-.194 4.748-4.208 8.419-9.19 8.223-4.981-.196-8.705-4.112-8.512-8.86zm12.236.49c.097-2.008-1.16-3.819-3.288-3.868-2.08-.098-3.434 1.616-3.483 3.525v.049c-.048 1.958 1.161 3.769 3.29 3.818 2.079.049 3.433-1.615 3.481-3.525zm6.917-8.126 13.59-.343.097 4.7-8.174.195.049 2.105 7.593-.196.097 4.259-7.594.196.145 5.384-5.416.147zm20.265-.784 13.542-1.37.483 4.7-8.125.831.194 2.105 7.544-.783.436 4.259-7.545.783.532 5.336-5.417.538zm19.152-2.349 5.32-.832 9.286 15.272-5.804.93-1.209-2.056-5.61.882-.484 2.3-5.755.93zm5.659 9.692-2.08-3.72-.87 4.16zm7.545-11.748 5.513-1.273 4.692 4.846 2.128-6.412 5.513-1.273 3.676 16.007-5.272 1.224-1.79-7.93-2.32 6.56h-.097l-4.934-4.847 1.79 7.93-5.175 1.224zm21.038-5.091 13.252-4.063 1.306 4.308-8.173 2.496.483 1.616 7.593-2.301 1.113 3.818-7.593 2.3.532 1.714 8.27-2.496 1.306 4.307-13.397 4.063zm14.945-2.252c-.435-1.224.242-2.643 1.451-3.035 1.258-.44 2.563.245 2.999 1.518.435 1.223-.242 2.594-1.451 3.035a2.418 2.418 0 0 1-2.999-1.518zm4.208-1.468c-.387-1.126-1.5-1.714-2.66-1.371-1.113.392-1.645 1.615-1.306 2.692.387 1.126 1.5 1.714 2.66 1.322 1.112-.343 1.693-1.566 1.306-2.643zm-3.434-.196 1.16-.392c.678-.245 1.161-.098 1.355.44.145.392.048.686-.242.882l.822.636-.919.294-.677-.539-.145.05.242.685-.774.293zm1.5.734c.193-.049.29-.196.241-.343-.048-.146-.193-.195-.387-.146l-.338.097.145.49z" fill="#fff"/>
      <path d="m34 157.538 14.123-2.3 8.512 9.643zm211.5.147-14.17-2.3-8.465 9.692z" fill="#ce7529"/>
    </g>
  </g>
</svg>
